<svg id="sailor" enable-background="new 0 0 300 300" height="512" viewBox="0 0 300 300" width="512" xmlns="http://www.w3.org/2000/svg"><circle cx="173.341" cy="125.482" fill="#e5efef" r="92"/><path d="m76.915 164.261c-13.686-5.757-20.115-21.518-14.358-35.205.239-.569.52-1.105.793-1.649l-27.436-11.54c-.255.557-.554 1.08-.794 1.649-12.13 28.839 1.415 62.051 30.254 74.181.569.239 1.148.404 1.72.623l11.54-27.436c-.574-.196-1.15-.383-1.719-.623z" fill="#fff"/><path d="m67.095 196.322c-.477 0-.961-.086-1.434-.266l-.586-.207c-.422-.145-.84-.293-1.25-.465-14.934-6.281-26.527-18-32.645-33-6.117-15.004-6.027-31.488.254-46.418.176-.422.379-.832.586-1.242l.266-.543c.91-1.953 3.211-2.82 5.18-2l27.434 11.54c1.023.43 1.82 1.266 2.203 2.305s.316 2.191-.18 3.184c-.324.641-.516 1.004-.676 1.391-4.895 11.641.59 25.082 12.219 29.973.008.004.016.008.023.008.391.172.793.301 1.191.438 1.055.355 2.027 1.172 2.484 2.184.457 1.016.586 2.211.156 3.234l-11.539 27.438c-.639 1.524-2.123 2.446-3.686 2.446zm-29.086-75.234c-4.648 12.422-4.457 25.926.578 38.273 5.039 12.348 14.348 22.137 26.352 27.766l8.453-20.094c-13.691-6.914-20.242-22.973-15.297-37.496z" fill="#4c241d"/><path d="m112.744 148.184c-.198.575-.385 1.151-.624 1.72-5.518 13.118-20.222 19.536-33.486 14.981l-11.54 27.436c28.43 10.902 60.57-2.607 72.461-30.877.239-.569.404-1.148.623-1.72z" fill="#f53e28"/><path d="m87.576 200.146c-7.273 0-14.684-1.316-21.914-4.09-1.012-.387-1.82-1.168-2.246-2.164s-.426-2.121-.008-3.121l11.539-27.438c.816-1.938 2.992-2.91 4.988-2.234 11.312 3.902 23.852-1.703 28.496-12.746.18-.418.312-.828.453-1.238.355-1.055 1.168-2.016 2.18-2.473 1.016-.461 2.207-.574 3.23-.145l27.437 11.539c2 .84 2.965 3.121 2.176 5.141l-.215.598c-.137.41-.281.816-.449 1.219-9.757 23.199-31.991 37.152-55.667 37.152zm-15.133-10.226c24.934 7.43 51.43-4.324 62.543-28.039l-20.094-8.453c-6.305 12.477-20.379 19.133-33.93 16.242zm40.301-41.734 3.785 1.289z" fill="#4c241d"/><path d="m112.744 148.184 27.435 11.54c10.683-27.858-2.11-59.227-29.229-71.667l-11.54 27.435c11.99 6.021 17.692 20.003 13.334 32.692z" fill="#fff"/><path d="m140.181 163.725c-.527 0-1.055-.105-1.551-.312l-27.437-11.539c-1.941-.816-2.918-2.996-2.23-4.988 3.691-10.754-1.184-22.715-11.348-27.82-1.879-.945-2.707-3.184-1.891-5.125l11.539-27.434c.422-1 1.227-1.785 2.238-2.176 1.004-.395 2.137-.363 3.117.09 28.953 13.285 42.699 46.992 31.297 76.738-.387 1.008-1.168 1.82-2.164 2.246-.499.214-1.035.32-1.57.32zm-22.652-17.868 20.246 8.516c6.945-23.484-3.414-48.883-24.801-60.809l-8.516 20.242c10.446 6.973 15.665 19.766 13.071 32.051z" fill="#4c241d"/><path d="m97.762 114.698c.569.239 1.105.521 1.649.793l11.54-27.435c-.557-.255-1.08-.554-1.649-.794-28.27-11.891-60.691.93-73.388 28.605l27.436 11.54c6.295-12.531 21.295-18.227 34.412-12.709z" fill="#f53e28"/><g fill="#4c241d"><path d="m63.349 131.408c-.52 0-1.047-.102-1.551-.312l-27.434-11.539c-1-.422-1.785-1.227-2.176-2.234-.395-1.012-.359-2.137.09-3.121 13.73-29.93 48.23-43.379 78.574-30.625.422.176.832.379 1.242.586l.543.266c1.949.91 2.832 3.195 2 5.18l-11.539 27.434c-.43 1.023-1.266 1.82-2.305 2.203-1.027.383-2.188.316-3.184-.18-.625-.316-1.004-.512-1.398-.68-11.043-4.641-23.91.113-29.289 10.82-.698 1.39-2.104 2.202-3.573 2.202zm-21.929-17.562 20.246 8.516c7.684-11.539 22.363-16.629 35.617-12.121l8.449-20.09c-24.527-9.188-51.703.953-64.312 23.695z"/><path d="m49.341 65.482c-1.602 0-3.059-.957-3.688-2.449-2.492-5.918-6.527-8.957-12.707-9.57-2.199-.219-3.805-2.176-3.586-4.375.215-2.199 2.234-3.777 4.375-3.586 6.105.605 11.133 3.082 14.859 7.27 3.742-6.801 9.223-10.586 16.363-11.27 2.156-.258 4.152 1.398 4.363 3.598s-1.398 4.152-3.598 4.363c-4.141.398-9.305 2.254-12.547 13.16-.484 1.617-1.93 2.762-3.617 2.852-.072.004-.146.007-.217.007z"/><path d="m251.115 234.518c-3.992 0-7.941-1.547-10.926-4.531l-2.426-2.426c-2.688-2.688-6.957-2.922-9.93-.551l-3.984 3.191c-6.152 4.93-15.008 4.438-20.586-1.141l-.648-.648c-2.906-2.906-7.641-2.906-10.547 0l-.648.648c-5.578 5.578-14.434 6.07-20.586 1.137l-4.445-3.551c-2.836-2.273-6.887-2.18-9.609.246-5.617 4.996-13.973 5.23-19.852.582l-1.414-1.113c-2.43-1.93-5.848-2.129-8.5-.52l-4.969 3.023c-5.422 3.305-12.23 2.977-17.309-.84l-2.918-2.188c-2.641-1.977-6.312-1.977-8.953 0l-2.25 1.688c-5.461 4.094-13.086 4.094-18.547 0l-2.25-1.688c-2.641-1.977-6.312-1.977-8.953 0l-2.25 1.688c-5.461 4.094-13.086 4.094-18.547 0l-9.125-6.844c-1.77-1.324-2.129-3.832-.801-5.598 1.328-1.77 3.832-2.121 5.598-.801l9.125 6.844c2.641 1.977 6.312 1.977 8.953 0l2.25-1.688c5.461-4.094 13.086-4.094 18.547 0l2.25 1.688c2.641 1.977 6.312 1.977 8.953 0l2.25-1.688c5.461-4.094 13.086-4.094 18.547 0l2.918 2.188c2.453 1.84 5.738 1.996 8.352.406l4.973-3.027c5.504-3.336 12.578-2.902 17.617 1.074l1.41 1.113c2.844 2.246 6.867 2.133 9.578-.277 5.641-5.02 14.027-5.234 19.926-.52l4.445 3.555c2.973 2.383 7.238 2.141 9.93-.547l.648-.648c6.023-6.031 15.836-6.031 21.859 0l.648.648c2.688 2.691 6.961 2.926 9.93.551l3.984-3.191c6.156-4.93 15.008-4.434 20.586 1.141l2.426 2.426c2.422 2.418 6.172 2.887 9.109 1.121l12.328-7.398c1.898-1.141 4.355-.523 5.488 1.371 1.137 1.895.523 4.352-1.371 5.488l-12.328 7.398c-2.476 1.486-5.226 2.209-7.956 2.209z"/><path d="m251.115 254.518c-3.992 0-7.941-1.547-10.926-4.531l-2.426-2.426c-2.688-2.688-6.957-2.922-9.93-.551l-3.984 3.191c-6.152 4.93-15.008 4.438-20.586-1.141l-.648-.648c-2.906-2.906-7.641-2.906-10.547 0l-.648.648c-5.578 5.578-14.434 6.074-20.586 1.137l-4.445-3.551c-2.836-2.277-6.887-2.18-9.609.246-5.617 4.992-13.973 5.23-19.852.582l-1.414-1.113c-2.43-1.93-5.848-2.129-8.5-.52l-4.969 3.023c-5.422 3.301-12.23 2.98-17.309-.84l-2.918-2.188c-2.641-1.977-6.312-1.977-8.953 0l-2.25 1.688c-5.461 4.094-13.086 4.094-18.547 0l-2.25-1.688c-2.641-1.977-6.312-1.977-8.953 0l-2.25 1.688c-5.461 4.094-13.086 4.094-18.547 0l-9.125-6.844c-1.77-1.324-2.129-3.832-.801-5.598 1.328-1.77 3.832-2.121 5.598-.801l9.125 6.844c2.641 1.977 6.312 1.977 8.953 0l2.25-1.688c5.461-4.094 13.086-4.094 18.547 0l2.25 1.688c2.641 1.977 6.312 1.977 8.953 0l2.25-1.688c5.461-4.094 13.086-4.094 18.547 0l2.918 2.188c2.453 1.84 5.738 1.996 8.352.406l4.973-3.027c5.504-3.336 12.578-2.902 17.617 1.074l1.41 1.113c2.844 2.246 6.867 2.129 9.578-.277 5.641-5.02 14.027-5.238 19.926-.52l4.445 3.555c2.973 2.383 7.238 2.141 9.93-.547l.648-.648c6.023-6.031 15.836-6.031 21.859 0l.648.648c2.688 2.688 6.961 2.926 9.93.551l3.984-3.191c6.156-4.93 15.008-4.434 20.586 1.141l2.426 2.426c2.422 2.418 6.172 2.887 9.109 1.121l12.328-7.398c1.898-1.141 4.355-.523 5.488 1.371 1.137 1.895.523 4.352-1.371 5.488l-12.328 7.398c-2.476 1.486-5.226 2.209-7.956 2.209z"/><path d="m251.115 274.518c-3.992 0-7.941-1.547-10.926-4.531l-2.426-2.426c-2.688-2.688-6.957-2.922-9.93-.551l-3.984 3.191c-6.152 4.934-15.008 4.438-20.586-1.141l-.648-.648c-2.906-2.906-7.641-2.906-10.547 0l-.648.648c-5.578 5.578-14.434 6.074-20.586 1.137l-4.445-3.551c-2.836-2.273-6.887-2.18-9.609.246-5.617 4.992-13.973 5.23-19.852.582l-1.414-1.113c-2.43-1.926-5.848-2.129-8.5-.52l-4.969 3.023c-5.422 3.301-12.23 2.98-17.309-.84l-2.918-2.188c-2.641-1.977-6.312-1.977-8.953 0l-2.25 1.688c-5.461 4.094-13.086 4.094-18.547 0l-2.25-1.688c-2.641-1.977-6.312-1.977-8.953 0l-2.25 1.688c-5.461 4.094-13.086 4.094-18.547 0l-9.125-6.844c-1.77-1.324-2.129-3.832-.801-5.598 1.328-1.77 3.832-2.121 5.598-.801l9.125 6.844c2.641 1.977 6.312 1.977 8.953 0l2.25-1.688c5.461-4.094 13.086-4.094 18.547 0l2.25 1.688c2.641 1.977 6.312 1.977 8.953 0l2.25-1.688c5.461-4.094 13.086-4.094 18.547 0l2.918 2.188c2.453 1.84 5.738 1.996 8.352.406l4.973-3.027c5.504-3.336 12.578-2.902 17.617 1.074l1.41 1.113c2.844 2.246 6.867 2.129 9.578-.277 5.641-5.02 14.027-5.238 19.926-.52l4.445 3.555c2.973 2.383 7.238 2.141 9.93-.547l.648-.648c6.023-6.031 15.836-6.031 21.859 0l.648.648c2.688 2.691 6.961 2.926 9.93.551l3.984-3.191c6.156-4.93 15.008-4.438 20.586 1.141l2.426 2.426c2.422 2.422 6.172 2.883 9.109 1.121l12.328-7.398c1.898-1.137 4.355-.523 5.488 1.371 1.137 1.895.523 4.352-1.371 5.488l-12.328 7.398c-2.476 1.486-5.226 2.209-7.956 2.209z"/><path d="m249.341 273.482c-2.211 0-4-1.789-4-4v-12c0-2.211 1.789-4 4-4s4 1.789 4 4v12c0 2.211-1.789 4-4 4z"/><path d="m207.341 219.482h-12c-2.211 0-4-1.789-4-4s1.789-4 4-4h12c2.211 0 4 1.789 4 4s-1.789 4-4 4z"/><path d="m211.236 257.744c-1.02 0-2.043-.387-2.824-1.164-1.562-1.559-1.57-4.094-.012-5.66l8.469-8.504c1.559-1.555 4.094-1.57 5.66-.012 1.562 1.559 1.57 4.094.012 5.66l-8.469 8.504c-.781.782-1.809 1.176-2.836 1.176z"/><path d="m103.341 61.482c-7.719 0-14-6.281-14-14s6.281-14 14-14 14 6.281 14 14-6.281 14-14 14zm0-20c-3.309 0-6 2.691-6 6s2.691 6 6 6 6-2.691 6-6-2.691-6-6-6z"/><path d="m255.341 193.482c-7.719 0-14-6.281-14-14s6.281-14 14-14 14 6.281 14 14-6.281 14-14 14zm0-20c-3.309 0-6 2.691-6 6s2.691 6 6 6 6-2.691 6-6-2.691-6-6-6z"/><circle cx="259.341" cy="99.482" r="4.529"/><path d="m249.994 50.83c-1.023 0-2.047-.391-2.828-1.172-1.562-1.562-1.562-4.094 0-5.656l14.695-14.695c1.562-1.562 4.094-1.562 5.656 0s1.562 4.094 0 5.656l-14.695 14.695c-.781.781-1.805 1.172-2.828 1.172z"/></g><path d="m133.341 101.482h100v112h-100z" fill="#ffce56"/><path d="m233.341 217.482h-100c-2.211 0-4-1.789-4-4v-112c0-2.211 1.789-4 4-4h100c2.211 0 4 1.789 4 4v112c0 2.211-1.789 4-4 4zm-96-8h92v-104h-92z" fill="#4c241d"/><path d="m264.689 50.83c-1.023 0-2.047-.391-2.828-1.172l-14.695-14.695c-1.562-1.562-1.562-4.094 0-5.656s4.094-1.562 5.656 0l14.695 14.695c1.562 1.562 1.562 4.094 0 5.656-.781.781-1.804 1.172-2.828 1.172z" fill="#4c241d"/><path d="m253.341 269.482h-144v-32.902c0-14.82 8.534-28.25 21.776-34.269l50.224-22.829 50.224 22.829c13.242 6.019 21.776 19.449 21.776 34.269z" fill="#fff"/><path d="m253.341 273.482h-144c-2.211 0-4-1.789-4-4v-32.902c0-16.367 9.469-31.25 24.121-37.91l50.223-22.828c1.055-.477 2.258-.477 3.312 0l50.223 22.828c14.652 6.66 24.121 21.543 24.121 37.91v32.902c0 2.211-1.789 4-4 4zm-140-8h136v-28.902c0-13.238-7.629-25.262-19.434-30.629l-48.566-22.074-48.566 22.074c-11.805 5.367-19.434 17.391-19.434 30.629z" fill="#4c241d"/><path d="m194.542 185.482h-26.401l-26.675 12.125 39.875 39.875 41.935-38.939z" fill="#9dc1e4"/><path d="m181.341 241.482c-1.023 0-2.047-.391-2.828-1.172l-39.875-39.875c-.93-.926-1.34-2.25-1.109-3.543.234-1.289 1.09-2.383 2.281-2.926l26.676-12.125c.52-.238 1.086-.359 1.656-.359h26.398c.57 0 1.137.121 1.656.359l28.734 13.062c1.219.555 2.078 1.68 2.293 3s-.246 2.66-1.227 3.57l-41.934 38.938c-.767.716-1.744 1.071-2.721 1.071zm-32.964-42.621 33.066 33.066 34.707-32.227-22.477-10.219h-24.664z" fill="#4c241d"/><path d="m181.341 201.482c-8.837 0-16-7.163-16-16v-8h32v8c0 8.837-7.163 16-16 16z" fill="#e7d1c4"/><path d="m181.341 205.482c-11.027 0-20-8.973-20-20v-8c0-2.211 1.789-4 4-4h32c2.211 0 4 1.789 4 4v8c0 11.028-8.972 20-20 20zm-12-24v4c0 6.617 5.383 12 12 12s12-5.383 12-12v-4z" fill="#4c241d"/><path d="m233.341 119.482c-.294 0-.336-2.941-.288-6.301.083-5.821-3.813-10.999-9.466-12.394-27.643-6.821-57.325-5.547-84.267 2.727-3.531 1.084-5.848 4.473-5.744 8.166.105 3.746.133 7.801-.236 7.801-5.644 0-10.196 4.676-9.993 10.365.114 3.199 2.081 6.09 4.734 7.88 3.217 2.171 5.98 2.017 8.431 1.192 3.968 19.359 18.022 35.548 37.427 41.794 5.563 1.791 11.581 1.62 17.141-.182l1.775-.575c19.093-6.188 33.023-22.039 37.173-41.079 2.441.861 5.222 1.012 8.371-.95 2.549-1.588 4.495-4.194 4.862-7.174.752-6.089-3.979-11.27-9.92-11.27z" fill="#e7d1c4"/><path d="m182.095 185.982c-3.199 0-6.352-.484-9.383-1.461-19.199-6.184-33.93-21.711-39.219-41.035-2.609.043-5.172-.773-7.648-2.441-3.914-2.641-6.344-6.773-6.492-11.055-.137-3.836 1.254-7.469 3.914-10.23 1.781-1.844 3.973-3.137 6.379-3.789 0-.977-.016-2.328-.07-4.176-.152-5.531 3.375-10.508 8.57-12.105 28.066-8.621 58.75-9.613 86.398-2.785 7.48 1.844 12.621 8.562 12.508 16.336-.016 1.137-.02 2.035-.012 2.738 2.602.715 4.969 2.172 6.793 4.23 2.652 3.004 3.895 7.023 3.398 11.031-.492 4-3.004 7.766-6.715 10.082-2.418 1.508-4.859 2.223-7.527 2.152-5.441 18.934-20.051 34.176-38.898 40.285l-1.77.578c-3.39 1.099-6.831 1.645-10.226 1.645zm-45.582-51.062c.691 0 1.383.18 1.996.531.992.574 1.691 1.543 1.922 2.664 3.738 18.234 17.047 33.098 34.734 38.789 4.633 1.496 9.715 1.438 14.688-.176l1.766-.578c17.387-5.633 30.605-20.242 34.5-38.125.246-1.121.961-2.086 1.965-2.645.996-.555 2.199-.668 3.277-.273 1.809.637 3.238.477 4.926-.574 1.68-1.051 2.805-2.645 3.008-4.27.215-1.762-.301-3.449-1.457-4.754-1.137-1.289-2.777-2.027-4.496-2.027-1.07 0-2.137-.449-2.887-1.211-1.379-1.395-1.488-2.875-1.402-9.145.059-3.969-2.641-7.523-6.422-8.457-26.266-6.477-55.434-5.531-82.133 2.668-1.773.543-2.977 2.285-2.922 4.234.23 8.277-.023 9.344-1.32 10.676-.754.773-1.832 1.234-2.914 1.234-1.645 0-3.176.652-4.316 1.832-1.141 1.184-1.738 2.742-1.68 4.391.062 1.707 1.203 3.512 2.977 4.707 1.934 1.312 3.371 1.242 4.914.715.417-.136.847-.206 1.276-.206zm100.617-16.477h.039z" fill="#4c241d"/><circle cx="203.341" cy="135.482" fill="#4c241d" r="4"/><circle cx="163.341" cy="135.482" fill="#4c241d" r="4"/><path d="m233.341 89.482c0-44-100-52-99.78 7.34.021 5.763.146 12.021.087 16.344 10.93.374 21.141-3.243 27.89-10.021 11.638 22.604 44.081 31.871 71.803 10.216 0-8.389 0-20.266 0-23.879z" fill="#ffce56"/><path d="m199.994 129.65c-3.625 0-7.246-.387-10.828-1.176-11.961-2.625-22.16-9.508-28.641-19.184-7.25 5.395-16.875 8.227-27.016 7.871-2.176-.074-3.895-1.875-3.863-4.055.039-2.719.004-6.207-.035-9.852l-.051-6.418c-.078-21.438 11.66-32.762 21.52-38.484 18.578-10.789 47.238-10.48 66.668.707 12.637 7.273 19.594 18.078 19.594 30.422v23.879c0 1.23-.566 2.395-1.539 3.152-11.055 8.638-23.462 13.138-35.809 13.138zm-38.457-30.504c.203 0 .41.016.613.047 1.262.195 2.355.984 2.941 2.121 5.051 9.809 14.453 16.859 25.789 19.348 12.855 2.82 26.441-.477 38.461-9.289v-21.891c0-12-8.477-19.395-15.586-23.488-17.148-9.879-42.371-10.184-58.66-.723-8.035 4.664-17.602 13.926-17.535 31.535l.051 6.367c.023 2.066.043 4.082.051 5.945 8.367-.512 15.891-3.621 21.039-8.797.758-.757 1.781-1.175 2.836-1.175zm71.804 14.215h.039z" fill="#4c241d"/><path d="m200.553 242.271c6.37 6.37 4.323 18.746 4.323 18.746s-12.375 2.047-18.746-4.323c-6.37-6.37-4.323-18.746-4.323-18.746s12.375-2.047 18.746 4.323z" fill="#9dc1e4"/><path d="m200.377 265.326c-4.898 0-12.207-.938-17.074-5.805-7.734-7.734-5.539-21.641-5.441-22.227.277-1.691 1.602-3.016 3.293-3.293.59-.102 14.492-2.293 22.227 5.441s5.539 21.641 5.441 22.227c-.277 1.691-1.602 3.016-3.293 3.293-.22.04-2.267.364-5.153.364zm4.5-4.308h.039zm-19.379-19.379c-.102 3.762.461 9.227 3.461 12.227 2.996 2.996 8.477 3.578 12.227 3.461.102-3.762-.461-9.227-3.461-12.227-2.993-2.996-8.477-3.551-12.227-3.461z" fill="#4c241d"/><path d="m162.13 242.271c-6.37 6.37-4.323 18.746-4.323 18.746s12.375 2.047 18.746-4.323c6.37-6.37 4.323-18.746 4.323-18.746s-12.375-2.047-18.746 4.323z" fill="#9dc1e4"/><path d="m162.306 265.326c-2.887 0-4.934-.324-5.152-.363-1.691-.277-3.016-1.602-3.293-3.293-.098-.586-2.293-14.492 5.441-22.227s21.641-5.543 22.227-5.441c1.691.277 3.016 1.602 3.293 3.293.098.586 2.293 14.492-5.441 22.227-4.868 4.867-12.176 5.804-17.075 5.804zm-.808-8c3.773.113 9.227-.457 12.227-3.461 2.996-3 3.562-8.461 3.461-12.227-3.758-.121-9.223.457-12.227 3.461-2.996 3.001-3.563 8.462-3.461 12.227z" fill="#4c241d"/><path d="m221.705 273.756c-2.211 0-4-1.789-4-4v-24.273c0-2.211 1.789-4 4-4s4 1.789 4 4v24.273c0 2.211-1.789 4-4 4z" fill="#4c241d"/><ellipse cx="181.341" cy="65.482" fill="#fff" rx="48" ry="36"/><path d="m181.341 105.482c-28.672 0-52-17.945-52-40s23.328-40 52-40 52 17.945 52 40-23.328 40-52 40zm0-72c-24.262 0-44 14.355-44 32s19.738 32 44 32 44-14.355 44-32-19.738-32-44-32z" fill="#4c241d"/><path d="m141.705 273.756c-2.211 0-4-1.789-4-4v-24.273c0-2.211 1.789-4 4-4s4 1.789 4 4v24.273c0 2.211-1.789 4-4 4z" fill="#4c241d"/><path d="m232.826 101.482h-102.97l-12.515-40h128z" fill="#fff"/><path d="m232.826 105.482h-102.969c-1.75 0-3.297-1.137-3.816-2.805l-12.516-40c-.383-1.215-.16-2.539.594-3.562.754-1.027 1.949-1.633 3.223-1.633h128c1.273 0 2.469.605 3.223 1.633.754 1.023.977 2.348.594 3.562l-12.516 40c-.52 1.669-2.067 2.805-3.817 2.805zm-100.028-8h97.086l10.016-32h-117.117z" fill="#4c241d"/><path d="m181.341 165.482c-2.922 0-5.734-1.062-7.926-2.992-1.656-1.457-1.816-3.984-.355-5.645 1.465-1.66 3.988-1.816 5.645-.355.516.453 1.391.992 2.637.992 1.145 0 2.199-.469 2.969-1.316 1.484-1.641 4.008-1.762 5.648-.281 1.641 1.484 1.766 4.012.281 5.648-2.274 2.512-5.516 3.949-8.899 3.949z" fill="#4c241d"/></svg>