<?xml version="1.0" encoding="iso-8859-1"?>
<!-- Generator: Adobe Illustrator 19.0.0, SVG Export Plug-In . SVG Version: 6.00 Build 0)  -->
<svg version="1.1" id="Capa_1" xmlns="http://www.w3.org/2000/svg" xmlns:xlink="http://www.w3.org/1999/xlink" x="0px" y="0px"
	 viewBox="0 0 512 512" style="enable-background:new 0 0 512 512;" xml:space="preserve">
<g>
	<path style="fill:#AC7762;" d="M63.173,51.39H16.987c-3.082,0-5.581-2.499-5.581-5.581V5.585c0-3.082,2.499-5.581,5.581-5.581
		h46.186V51.39z"/>
	<path style="fill:#AC7762;" d="M495.011,51.39h-47.513V0.004h47.513c3.082,0,5.581,2.499,5.581,5.581V45.81
		C500.592,48.892,498.094,51.39,495.011,51.39z"/>
</g>
<path style="fill:#A06955;" d="M500.594,5.58v40.225c0,3.089-2.502,5.58-5.58,5.58h-15.65c0.196-0.638,0.309-1.318,0.309-2.018
	V1.431c0-0.494-0.052-0.968-0.154-1.431h15.495C498.092,0,500.594,2.502,500.594,5.58z"/>
<path style="fill:#57565B;" d="M63.157,51.391v443.541c0,12.021,10.711,20.268,20.61,15.869l171.885-76.386l171.885,76.386
	c9.899,4.399,20.61-3.848,20.61-15.869V51.391H63.157z"/>
<path style="fill:#4C4B51;" d="M448.147,51.385v443.561c0,12-10.697,20.246-20.609,15.842l-6.512-2.896V51.385H448.147z"/>
<rect x="63.16" y="0.004" style="fill:#DDA33C;" width="384.99" height="51.39"/>
<rect x="421.02" y="0.004" style="fill:#BC802A;" width="27.12" height="51.39"/>
<rect x="42.887" y="0.004" style="fill:#A06955;" width="20.286" height="51.39"/>
<path style="fill:#E8E8EA;" d="M330.357,323.49c43.811-21.271,73.246-60.76,73.246-105.964c0-67.735-66.083-122.646-147.604-122.647
	c-81.518,0.001-147.602,54.912-147.602,122.647c0,45.204,29.435,84.693,73.246,105.964c3.841,1.865,5.752,5.969,4.547,9.835
	c-2.813,9.023-5.82,18.007-7.909,27.186c-2.903,12.755,6.671,21.013,19.368,21.012c8.751-0.001,16.257-4.037,19.45-9.785
	c3.193,5.748,10.7,9.785,19.452,9.785c8.751,0,16.256-4.035,19.45-9.782c3.194,5.747,10.7,9.782,19.45,9.782
	c8.752,0,16.258-4.036,19.452-9.785c3.193,5.748,10.699,9.784,19.45,9.785c13.626,0.001,23.387-9.751,19.193-23.388
	c-2.546-8.28-5.156-16.54-7.734-24.81C324.605,329.459,326.516,325.355,330.357,323.49z"/>
<path style="fill:#D6D6D8;" d="M325.809,333.325c2.636,8.457,6.098,17.007,7.98,25.657c2.94,13.518-5.847,22.539-19.435,22.538
	c-4.029,0-7.796-0.855-10.995-2.345c6.832-3.242,11.361-8.999,11.361-15.56c0-2.269-0.542-4.444-1.541-6.451l-9.541-30.595
	c-1.38-4.444,0.813-9.168,5.232-11.31c50.371-24.458,84.217-69.859,84.217-121.83c0-9.515-1.134-18.802-3.293-27.785
	c8.855,15.755,13.808,33.338,13.808,51.878c0,45.207-29.435,84.7-73.245,105.966C326.52,325.358,324.607,329.456,325.809,333.325z"
	/>
<g>
	<path style="fill:#4C4B51;" d="M272.898,305.907c-0.851-8.575-13.213-17.46-16.237-19.514c-0.401-0.273-0.926-0.272-1.328,0
		c-3.023,2.054-15.379,10.939-16.23,19.514c-0.543,5.472,5.484,10.372,13.785,11.212c0.977,0.099,5.248,0.099,6.225,0
		C267.414,316.279,273.441,311.379,272.898,305.907z"/>
	<path style="fill:#4C4B51;" d="M259.114,317.122c-0.979,0.095-5.251,0.095-6.224,0c-3.862-0.392-7.226-1.661-9.671-3.459
		c1.282,0.083,5.091,0.077,6.004-0.018c8.3-0.837,14.328-5.737,13.788-11.213c-0.528-5.28-5.417-10.679-9.801-14.524
		c0.896-0.665,1.632-1.181,2.124-1.513c0.398-0.273,0.926-0.273,1.329,0c3.02,2.053,15.384,10.935,16.233,19.514
		C273.442,311.378,267.414,316.279,259.114,317.122z"/>
</g>
<circle style="fill:#57565B;" cx="198" cy="237.7" r="42.537"/>
<path style="fill:#4C4B51;" d="M240.536,237.696c0,23.492-19.039,42.54-42.532,42.54c-9.304,0-17.922-2.997-24.923-8.068
	c3.835,1.134,7.89,1.744,12.098,1.744c23.492,0,42.54-19.039,42.54-42.532c0-14.18-6.942-26.743-17.609-34.464
	C227.702,202.123,240.536,218.411,240.536,237.696z"/>
<circle style="fill:#57565B;" cx="314" cy="237.7" r="42.537"/>
<path style="fill:#4C4B51;" d="M356.53,237.696c0,23.492-19.039,42.54-42.532,42.54c-9.304,0-17.922-2.997-24.923-8.068
	c3.835,1.134,7.89,1.744,12.098,1.744c23.492,0,42.54-19.039,42.54-42.532c0-14.18-6.942-26.743-17.609-34.464
	C343.696,202.123,356.53,218.411,356.53,237.696z"/>
<g>
</g>
<g>
</g>
<g>
</g>
<g>
</g>
<g>
</g>
<g>
</g>
<g>
</g>
<g>
</g>
<g>
</g>
<g>
</g>
<g>
</g>
<g>
</g>
<g>
</g>
<g>
</g>
<g>
</g>
</svg>
