<svg width="190mm" height="120mm" viewBox="0 0 190 120" xmlns="http://www.w3.org/2000/svg"><path d="M10.16 12.97a1.807 1.807 0 0 1-1.665-1.106C7.369 9.192 5.547 7.82 2.757 7.543a1.806 1.806 0 0 1-1.62-1.976c.098-.993 1.01-1.705 1.976-1.62 2.757.274 5.027 1.392 6.71 3.284 1.69-3.071 4.165-4.78 7.389-5.09.973-.116 1.875.632 1.97 1.625a1.805 1.805 0 0 1-1.625 1.97c-1.87.18-4.202 1.018-5.666 5.943a1.807 1.807 0 0 1-1.731 1.29z" fill="#4c241d"/><g fill="#4c241d" stroke-width=".452"><path d="M111.29 98.403a6.967 6.967 0 0 1-4.934-2.046l-1.095-1.096a3.367 3.367 0 0 0-4.484-.248l-1.8 1.44a6.97 6.97 0 0 1-9.295-.515l-.292-.292a3.373 3.373 0 0 0-4.763 0l-.293.292a6.97 6.97 0 0 1-9.295.514l-2.008-1.604a3.357 3.357 0 0 0-4.339.111 6.97 6.97 0 0 1-8.964.263l-.638-.502a3.379 3.379 0 0 0-3.839-.235l-2.243 1.365a6.943 6.943 0 0 1-7.816-.38l-1.318-.988a3.386 3.386 0 0 0-4.043 0l-1.016.763a7.017 7.017 0 0 1-8.375 0l-1.016-.763a3.386 3.386 0 0 0-4.043 0l-1.016.763a7.017 7.017 0 0 1-8.375 0l-4.12-3.09a1.807 1.807 0 0 1 2.166-2.89l4.12 3.09a3.386 3.386 0 0 0 4.043 0l1.016-.762a7.017 7.017 0 0 1 8.375 0l1.016.762a3.386 3.386 0 0 0 4.043 0l1.016-.762a7.017 7.017 0 0 1 8.375 0l1.318.988a3.356 3.356 0 0 0 3.771.183l2.246-1.367a7.02 7.02 0 0 1 7.955.485l.637.503a3.361 3.361 0 0 0 4.325-.125 6.966 6.966 0 0 1 8.997-.235l2.007 1.605a3.361 3.361 0 0 0 4.484-.247l.293-.292c2.72-2.724 7.15-2.724 9.87 0l.293.292a3.364 3.364 0 0 0 4.484.25l1.8-1.442a6.972 6.972 0 0 1 9.295.515l1.095 1.096a3.364 3.364 0 0 0 4.114.506l5.566-3.34a1.806 1.806 0 1 1 1.859 3.097l-5.566 3.34a6.968 6.968 0 0 1-3.593.998zM111.29 107.433a6.967 6.967 0 0 1-4.934-2.046l-1.095-1.096a3.367 3.367 0 0 0-4.484-.248l-1.8 1.44a6.97 6.97 0 0 1-9.295-.515l-.292-.292a3.373 3.373 0 0 0-4.763 0l-.293.292a6.967 6.967 0 0 1-9.295.514l-2.008-1.604a3.354 3.354 0 0 0-4.339.111 6.973 6.973 0 0 1-8.964.263l-.638-.502a3.379 3.379 0 0 0-3.839-.235l-2.243 1.365a6.944 6.944 0 0 1-7.816-.38l-1.318-.988a3.386 3.386 0 0 0-4.043 0l-1.016.763a7.017 7.017 0 0 1-8.375 0l-1.016-.763a3.386 3.386 0 0 0-4.043 0l-1.016.763a7.017 7.017 0 0 1-8.375 0l-4.12-3.09a1.807 1.807 0 0 1 2.166-2.89l4.12 3.09a3.386 3.386 0 0 0 4.043 0l1.016-.762a7.017 7.017 0 0 1 8.375 0l1.016.762a3.386 3.386 0 0 0 4.043 0l1.016-.762a7.017 7.017 0 0 1 8.375 0l1.318.988a3.356 3.356 0 0 0 3.771.183l2.246-1.367a7.02 7.02 0 0 1 7.955.485l.637.503a3.364 3.364 0 0 0 4.325-.125 6.964 6.964 0 0 1 8.997-.235l2.007 1.605a3.361 3.361 0 0 0 4.484-.247l.293-.292c2.72-2.724 7.15-2.724 9.87 0l.293.292a3.365 3.365 0 0 0 4.484.25l1.8-1.442a6.972 6.972 0 0 1 9.295.516l1.095 1.095a3.364 3.364 0 0 0 4.114.506l5.566-3.34a1.806 1.806 0 1 1 1.859 3.097l-5.566 3.34a6.968 6.968 0 0 1-3.593.998zM111.29 116.473a6.967 6.967 0 0 1-4.934-2.046l-1.095-1.095a3.367 3.367 0 0 0-4.484-.25l-1.8 1.442a6.968 6.968 0 0 1-9.295-.516l-.292-.292a3.373 3.373 0 0 0-4.763 0l-.293.292a6.967 6.967 0 0 1-9.295.514l-2.008-1.604a3.357 3.357 0 0 0-4.339.111 6.973 6.973 0 0 1-8.964.263l-.638-.502a3.382 3.382 0 0 0-3.839-.235l-2.243 1.365a6.944 6.944 0 0 1-7.816-.38l-1.318-.988a3.386 3.386 0 0 0-4.043 0l-1.016.763a7.017 7.017 0 0 1-8.375 0l-1.016-.763a3.386 3.386 0 0 0-4.043 0l-1.016.763a7.017 7.017 0 0 1-8.375 0l-4.12-3.09a1.807 1.807 0 0 1 2.166-2.89l4.12 3.09a3.386 3.386 0 0 0 4.043 0l1.016-.762a7.017 7.017 0 0 1 8.375 0l1.016.762a3.386 3.386 0 0 0 4.043 0l1.016-.762a7.017 7.017 0 0 1 8.375 0l1.318.988a3.356 3.356 0 0 0 3.771.183l2.246-1.367a7.02 7.02 0 0 1 7.955.485l.637.503a3.364 3.364 0 0 0 4.325-.125 6.964 6.964 0 0 1 8.997-.235l2.007 1.605a3.361 3.361 0 0 0 4.484-.247l.293-.292c2.72-2.724 7.15-2.724 9.87 0l.293.292a3.364 3.364 0 0 0 4.484.25l1.8-1.442a6.97 6.97 0 0 1 9.295.516l1.095 1.095a3.364 3.364 0 0 0 4.114.506l5.566-3.34a1.805 1.805 0 1 1 1.86 3.097l-5.567 3.34a6.968 6.968 0 0 1-3.593.998z"/></g><g stroke-width=".452" transform="translate(0 -177)"><path d="M10.438 226.65c-3.486 0-6.322-2.836-6.322-6.322s2.836-6.322 6.322-6.322 6.322 2.837 6.322 6.322-2.836 6.322-6.322 6.322zm0-9.031c-1.494 0-2.71 1.215-2.71 2.71s1.216 2.709 2.71 2.709 2.71-1.216 2.71-2.71-1.216-2.71-2.71-2.71z" fill="#4c241d"/><circle cx="23.469" cy="254.23" r="2.045" fill="#4c241d"/><circle cx="136.48" cy="226.78" r="41.543" fill="#e5efef"/><path d="M92.94 244.29c-6.18-2.6-9.083-9.717-6.483-15.897.108-.257.234-.499.358-.745l-12.39-5.21c-.114.25-.25.487-.358.744-5.477 13.022.64 28.019 13.661 33.497.257.108.519.182.777.281l5.21-12.389c-.258-.088-.519-.173-.776-.281z" fill="#fff"/><path d="M88.506 258.76c-.215 0-.434-.039-.648-.12l-.264-.094a9.095 9.095 0 0 1-.565-.21c-6.743-2.836-11.978-8.128-14.74-14.9-2.763-6.776-2.722-14.22.114-20.96.08-.191.171-.376.265-.561l.12-.246a1.815 1.815 0 0 1 2.339-.903l12.388 5.211a1.807 1.807 0 0 1 .913 2.479c-.146.29-.233.453-.305.628-2.21 5.257.267 11.326 5.518 13.534.004.002.007.004.01.004.177.078.358.136.538.198.476.16.915.529 1.122.986.206.459.264.998.07 1.46l-5.21 12.39a1.805 1.805 0 0 1-1.665 1.105zm-13.134-33.972c-2.099 5.61-2.013 11.707.261 17.282 2.275 5.576 6.479 9.996 11.899 12.538l3.817-9.074c-6.182-3.122-9.14-10.374-6.907-16.932z" fill="#4c241d"/><path d="M109.12 237.03c-.09.26-.174.52-.282.777-2.491 5.923-9.131 8.821-15.12 6.764l-5.212 12.39c12.838 4.922 27.351-1.178 32.72-13.944.108-.256.183-.518.282-.776z" fill="#f53e28"/><path d="M97.754 260.49c-3.284 0-6.63-.594-9.895-1.847a1.804 1.804 0 0 1-1.019-2.386l5.211-12.39a1.81 1.81 0 0 1 2.252-1.01c5.108 1.763 10.77-.768 12.868-5.755.082-.188.141-.374.205-.559.16-.476.527-.91.984-1.116.459-.209.997-.26 1.459-.066l12.389 5.21c.903.38 1.339 1.41.982 2.322l-.097.27a8.085 8.085 0 0 1-.203.55c-4.405 10.476-14.446 16.776-25.137 16.776zm-6.833-4.618a23.638 23.638 0 0 0 28.242-12.66l-9.074-3.818c-2.847 5.634-9.202 8.64-15.321 7.335zm18.198-18.845l1.709.582z" fill="#4c241d"/><path d="M109.12 237.03l12.388 5.211c4.824-12.579-.953-26.744-13.199-32.362l-5.211 12.388a12.122 12.122 0 0 1 6.021 14.762z" fill="#fff"/><path d="M121.51 244.04a1.82 1.82 0 0 1-.7-.14l-12.39-5.211a1.804 1.804 0 0 1-1.006-2.253c1.666-4.856-.535-10.257-5.125-12.562a1.807 1.807 0 0 1-.854-2.314l5.21-12.388c.192-.452.555-.806 1.012-.983a1.797 1.797 0 0 1 1.407.041c13.074 5.999 19.281 21.22 14.132 34.651a1.81 1.81 0 0 1-1.686 1.159zm-10.229-8.068l9.142 3.845c3.136-10.604-1.541-22.073-11.199-27.459l-3.845 9.14c4.717 3.15 7.073 8.926 5.902 14.473z" fill="#4c241d"/><path d="M102.35 221.91c.257.108.499.235.745.358l5.21-12.388c-.25-.115-.487-.25-.744-.358-12.765-5.37-27.405.42-33.139 12.917l12.389 5.21c2.842-5.658 9.616-8.23 15.539-5.738z" fill="#f53e28"/></g><g transform="translate(58.209 -6.89) scale(.45156)" fill="#4c241d"><path d="M63.349 131.41a4.03 4.03 0 0 1-1.551-.312l-27.434-11.539a3.997 3.997 0 0 1-2.086-5.355c13.73-29.93 48.23-43.379 78.574-30.625.422.176.832.379 1.242.586l.543.266a4.006 4.006 0 0 1 2 5.18l-11.539 27.434a4.001 4.001 0 0 1-5.489 2.023c-.625-.316-1.004-.512-1.398-.68-11.043-4.641-23.91.113-29.289 10.82a3.995 3.995 0 0 1-3.573 2.202zM41.42 113.848l20.246 8.516c7.684-11.539 22.363-16.629 35.617-12.121l8.449-20.09c-24.527-9.188-51.703.953-64.312 23.695zM49.341 65.482a4.002 4.002 0 0 1-3.688-2.449c-2.492-5.918-6.527-8.957-12.707-9.57a4 4 0 0 1-3.586-4.375c.215-2.199 2.234-3.777 4.375-3.586 6.105.605 11.133 3.082 14.859 7.27 3.742-6.801 9.223-10.586 16.363-11.27 2.156-.258 4.152 1.398 4.363 3.598s-1.398 4.152-3.598 4.363c-4.141.398-9.305 2.254-12.547 13.16a4.003 4.003 0 0 1-3.834 2.859zM251.12 234.52a15.429 15.429 0 0 1-10.926-4.531l-2.426-2.426a7.457 7.457 0 0 0-9.93-.551l-3.984 3.191c-6.152 4.93-15.008 4.438-20.586-1.141l-.648-.648c-2.906-2.906-7.641-2.906-10.547 0l-.648.648c-5.578 5.578-14.434 6.07-20.586 1.137l-4.445-3.551a7.434 7.434 0 0 0-9.609.246 15.437 15.437 0 0 1-19.852.582l-1.414-1.113c-2.43-1.93-5.848-2.129-8.5-.52l-4.969 3.023a15.376 15.376 0 0 1-17.309-.84l-2.918-2.188a7.499 7.499 0 0 0-8.953 0l-2.25 1.688c-5.461 4.094-13.086 4.094-18.547 0l-2.25-1.688a7.499 7.499 0 0 0-8.953 0l-2.25 1.688c-5.461 4.094-13.086 4.094-18.547 0l-9.125-6.844a3.993 3.993 0 0 1-.801-5.598 4 4 0 0 1 5.598-.801l9.125 6.844a7.499 7.499 0 0 0 8.953 0l2.25-1.688c5.461-4.094 13.086-4.094 18.547 0l2.25 1.688a7.499 7.499 0 0 0 8.953 0l2.25-1.688c5.461-4.094 13.086-4.094 18.547 0l2.918 2.188a7.431 7.431 0 0 0 8.352.406l4.973-3.027c5.504-3.336 12.578-2.902 17.617 1.074l1.41 1.113a7.444 7.444 0 0 0 9.578-.277 15.427 15.427 0 0 1 19.926-.52l4.445 3.555a7.444 7.444 0 0 0 9.93-.547l.648-.648c6.023-6.031 15.836-6.031 21.859 0l.648.648a7.45 7.45 0 0 0 9.93.551l3.984-3.191c6.156-4.93 15.008-4.434 20.586 1.141l2.426 2.426a7.45 7.45 0 0 0 9.109 1.121l12.328-7.398a3.995 3.995 0 0 1 5.488 1.371 4 4 0 0 1-1.371 5.488l-12.328 7.398a15.431 15.431 0 0 1-7.956 2.209zM251.12 254.52a15.429 15.429 0 0 1-10.926-4.531l-2.426-2.426a7.457 7.457 0 0 0-9.93-.551l-3.984 3.191c-6.152 4.93-15.008 4.438-20.586-1.141l-.648-.648c-2.906-2.906-7.641-2.906-10.547 0l-.648.648c-5.578 5.578-14.434 6.074-20.586 1.137l-4.445-3.551a7.429 7.429 0 0 0-9.609.246 15.442 15.442 0 0 1-19.852.582l-1.414-1.113c-2.43-1.93-5.848-2.129-8.5-.52l-4.969 3.023c-5.422 3.301-12.23 2.98-17.309-.84l-2.918-2.188a7.499 7.499 0 0 0-8.953 0l-2.25 1.688c-5.461 4.094-13.086 4.094-18.547 0l-2.25-1.688a7.499 7.499 0 0 0-8.953 0l-2.25 1.688c-5.461 4.094-13.086 4.094-18.547 0l-9.125-6.844a3.993 3.993 0 0 1-.801-5.598 4 4 0 0 1 5.598-.801l9.125 6.844a7.499 7.499 0 0 0 8.953 0l2.25-1.688c5.461-4.094 13.086-4.094 18.547 0l2.25 1.688a7.499 7.499 0 0 0 8.953 0l2.25-1.688c5.461-4.094 13.086-4.094 18.547 0l2.918 2.188a7.431 7.431 0 0 0 8.352.406l4.973-3.027c5.504-3.336 12.578-2.902 17.617 1.074l1.41 1.113a7.449 7.449 0 0 0 9.578-.277 15.422 15.422 0 0 1 19.926-.52l4.445 3.555a7.444 7.444 0 0 0 9.93-.547l.648-.648c6.023-6.031 15.836-6.031 21.859 0l.648.648a7.453 7.453 0 0 0 9.93.551l3.984-3.191c6.156-4.93 15.008-4.434 20.586 1.141l2.426 2.426a7.45 7.45 0 0 0 9.109 1.121l12.328-7.398a3.995 3.995 0 0 1 5.488 1.371 4 4 0 0 1-1.371 5.488l-12.328 7.398a15.431 15.431 0 0 1-7.956 2.209zM251.12 274.52a15.429 15.429 0 0 1-10.926-4.531l-2.426-2.426a7.457 7.457 0 0 0-9.93-.551l-3.984 3.191c-6.152 4.934-15.008 4.438-20.586-1.141l-.648-.648c-2.906-2.906-7.641-2.906-10.547 0l-.648.648c-5.578 5.578-14.434 6.074-20.586 1.137l-4.445-3.551a7.434 7.434 0 0 0-9.609.246 15.442 15.442 0 0 1-19.852.582l-1.414-1.113c-2.43-1.926-5.848-2.129-8.5-.52l-4.969 3.023c-5.422 3.301-12.23 2.98-17.309-.84l-2.918-2.188a7.499 7.499 0 0 0-8.953 0l-2.25 1.688c-5.461 4.094-13.086 4.094-18.547 0l-2.25-1.688a7.499 7.499 0 0 0-8.953 0l-2.25 1.688c-5.461 4.094-13.086 4.094-18.547 0l-9.125-6.844a3.993 3.993 0 0 1-.801-5.598 4 4 0 0 1 5.598-.801l9.125 6.844a7.499 7.499 0 0 0 8.953 0l2.25-1.688c5.461-4.094 13.086-4.094 18.547 0l2.25 1.688a7.499 7.499 0 0 0 8.953 0l2.25-1.688c5.461-4.094 13.086-4.094 18.547 0l2.918 2.188a7.431 7.431 0 0 0 8.352.406l4.973-3.027c5.504-3.336 12.578-2.902 17.617 1.074l1.41 1.113a7.449 7.449 0 0 0 9.578-.277 15.422 15.422 0 0 1 19.926-.52l4.445 3.555a7.444 7.444 0 0 0 9.93-.547l.648-.648c6.023-6.031 15.836-6.031 21.859 0l.648.648a7.45 7.45 0 0 0 9.93.551l3.984-3.191a15.436 15.436 0 0 1 20.586 1.141l2.426 2.426a7.45 7.45 0 0 0 9.109 1.121l12.328-7.398a3.998 3.998 0 0 1 5.488 1.371 4 4 0 0 1-1.371 5.488l-12.328 7.398a15.431 15.431 0 0 1-7.956 2.209z"/><path d="M249.34 273.48c-2.211 0-4-1.789-4-4v-12c0-2.211 1.789-4 4-4s4 1.789 4 4v12c0 2.211-1.789 4-4 4zM207.34 219.48h-12c-2.211 0-4-1.789-4-4s1.789-4 4-4h12c2.211 0 4 1.789 4 4s-1.789 4-4 4zM211.24 257.74a3.993 3.993 0 0 1-2.824-1.164 4.008 4.008 0 0 1-.012-5.66l8.469-8.504c1.559-1.555 4.094-1.57 5.66-.012a4.008 4.008 0 0 1 .012 5.66l-8.469 8.504a4 4 0 0 1-2.836 1.176zM103.34 61.482c-7.719 0-14-6.281-14-14s6.281-14 14-14 14 6.281 14 14-6.281 14-14 14zm0-20c-3.309 0-6 2.691-6 6s2.691 6 6 6 6-2.691 6-6-2.691-6-6-6zM255.34 193.48c-7.719 0-14-6.281-14-14s6.281-14 14-14 14 6.281 14 14-6.281 14-14 14zm0-20c-3.309 0-6 2.691-6 6s2.691 6 6 6 6-2.691 6-6-2.691-6-6-6z"/><circle cx="259.34" cy="99.482" r="4.529"/><path d="M249.99 50.83a4 4 0 0 1-2.828-6.828l14.695-14.695a4 4 0 1 1 5.656 5.656l-14.695 14.695a3.988 3.988 0 0 1-2.828 1.172z"/></g><g stroke-width=".452"><path d="M118.42 38.94h45.156v50.574H118.42z" fill="#ffce56"/><path d="M163.58 91.32h-45.156a1.805 1.805 0 0 1-1.806-1.806V38.94c0-.999.808-1.806 1.806-1.806h45.156c.998 0 1.806.807 1.806 1.806v50.574c0 .998-.808 1.806-1.806 1.806zm-43.349-3.612h41.543V40.746h-41.543zM177.73 16.07a1.8 1.8 0 0 1-1.277-.53l-6.636-6.635a1.806 1.806 0 1 1 2.554-2.554l6.636 6.636a1.806 1.806 0 0 1-1.277 3.083z" fill="#4c241d"/><path d="M172.61 114.8h-65.024V99.943c0-6.692 3.854-12.756 9.833-15.474L140.1 74.16l22.678 10.309c5.98 2.718 9.833 8.782 9.833 15.474z" fill="#fff"/><path d="M172.61 116.61h-65.024a1.805 1.805 0 0 1-1.806-1.806V99.947c0-7.39 4.276-14.111 10.892-17.118L139.35 72.52a1.812 1.812 0 0 1 1.495 0l22.678 10.308c6.617 3.007 10.892 9.728 10.892 17.118v14.857c0 .998-.807 1.806-1.806 1.806zm-63.218-3.612h61.412V99.947c0-5.978-3.445-11.407-8.775-13.831l-21.93-9.968-21.93 9.968c-5.331 2.423-8.776 7.853-8.776 13.83z" fill="#4c241d"/><path d="M146.06 76.87h-11.922l-12.045 5.475 18.006 18.006 18.936-17.583z" fill="#9dc1e4"/><path d="M140.09 102.16a1.8 1.8 0 0 1-1.277-.53l-18.006-18.005a1.807 1.807 0 0 1 .53-2.921l12.045-5.475c.235-.108.49-.163.748-.163h11.92c.257 0 .513.055.748.163l12.975 5.898a1.807 1.807 0 0 1 .481 2.966l-18.936 17.583a1.794 1.794 0 0 1-1.229.484zm-14.885-19.246l14.931 14.931 15.672-14.552-10.15-4.614h-11.137z" fill="#4c241d"/><path d="M140.09 84.09a7.225 7.225 0 0 1-7.225-7.225v-3.612h14.45v3.612a7.225 7.225 0 0 1-7.225 7.225z" fill="#e7d1c4"/><path d="M140.09 85.9c-4.98 0-9.031-4.052-9.031-9.031v-3.613c0-.998.808-1.806 1.806-1.806h14.45c.998 0 1.806.808 1.806 1.806v3.613c0 4.98-4.051 9.031-9.03 9.031zm-5.419-10.837v1.806a5.425 5.425 0 0 0 5.419 5.419 5.425 5.425 0 0 0 5.419-5.419v-1.806z" fill="#4c241d"/><path d="M163.58 47.07c-.133 0-.152-1.328-.13-2.845.037-2.629-1.722-4.967-4.274-5.597-12.482-3.08-25.885-2.505-38.051 1.232-1.595.49-2.641 2.02-2.594 3.687.047 1.691.06 3.523-.107 3.523a4.515 4.515 0 0 0-4.512 4.68c.051 1.444.94 2.75 2.138 3.558 1.452.98 2.7.911 3.807.539 1.792 8.741 8.138 16.052 16.9 18.872 2.512.808 5.23.731 7.74-.083l.801-.26c8.622-2.793 14.912-9.951 16.786-18.548 1.103.389 2.358.457 3.78-.43 1.151-.716 2.03-1.893 2.196-3.239a4.516 4.516 0 0 0-4.48-5.089z" fill="#e7d1c4"/></g><g fill="#4c241d" stroke-width=".452" transform="translate(0 -177)"><path d="M140.43 254.09c-1.444 0-2.868-.219-4.237-.66-8.67-2.792-15.321-9.803-17.71-18.53-1.178.02-2.335-.349-3.454-1.102-1.767-1.193-2.864-3.058-2.931-4.992a6.28 6.28 0 0 1 1.767-4.62 6.278 6.278 0 0 1 2.88-1.71c0-.441-.006-1.051-.03-1.886-.07-2.497 1.523-4.745 3.87-5.466 12.672-3.893 26.528-4.34 39.013-1.258 3.378.833 5.7 3.867 5.648 7.377-.007.513-.009.919-.005 1.236a6.344 6.344 0 0 1 3.068 1.91 6.348 6.348 0 0 1 1.534 4.982c-.222 1.806-1.357 3.506-3.032 4.552-1.092.681-2.194 1.004-3.4.972-2.456 8.55-9.053 15.432-17.564 18.191l-.8.261a14.96 14.96 0 0 1-4.617.743zm-20.583-23.057c.312 0 .625.081.901.24.448.259.764.697.868 1.203 1.688 8.233 7.698 14.946 15.684 17.515 2.092.675 4.387.65 6.633-.08l.797-.26c7.851-2.544 13.82-9.141 15.579-17.217.111-.506.434-.942.887-1.194.45-.25.993-.302 1.48-.123.817.287 1.462.215 2.224-.26.76-.474 1.267-1.194 1.359-1.928a2.698 2.698 0 0 0-.658-2.146 2.708 2.708 0 0 0-2.03-.916c-.484 0-.965-.202-1.304-.547-.623-.63-.672-1.298-.633-4.129.027-1.792-1.193-3.397-2.9-3.819-11.861-2.925-25.032-2.497-37.088 1.205-.8.245-1.344 1.032-1.32 1.912.104 3.737-.01 4.22-.595 4.82-.34.35-.828.558-1.316.558-.743 0-1.434.294-1.95.827a2.696 2.696 0 0 0-.758 1.983c.028.77.543 1.586 1.345 2.125.873.593 1.522.561 2.219.323.188-.061.382-.093.576-.093zm45.434-7.44h.018z"/><circle cx="150.03" cy="231.29" r="1.806"/><circle cx="131.97" cy="231.29" r="1.806"/></g><g stroke-width=".452" transform="translate(0 -177)"><path d="M163.58 210.52c0-19.868-45.156-23.481-45.056 3.314.009 2.603.066 5.429.04 7.38 4.935.17 9.546-1.464 12.593-4.524 5.256 10.207 19.905 14.392 32.423 4.613V210.52z" fill="#ffce56"/><path d="M148.52 228.66c-1.637 0-3.272-.175-4.89-.531-5.4-1.185-10.005-4.293-12.932-8.663-3.274 2.436-7.62 3.715-12.2 3.555a1.806 1.806 0 0 1-1.744-1.832c.018-1.227.002-2.802-.016-4.448l-.023-2.898c-.035-9.68 5.266-14.794 9.718-17.378 8.389-4.872 21.33-4.733 30.104.319 5.706 3.284 8.848 8.163 8.848 13.737v10.783c0 .555-.256 1.081-.695 1.423-4.992 3.9-10.594 5.933-16.17 5.933zm-17.365-13.774a1.805 1.805 0 0 1 1.605.979c2.28 4.43 6.526 7.613 11.645 8.737 5.805 1.273 11.94-.216 17.367-4.195v-9.885c0-5.419-3.828-8.758-7.038-10.606-7.743-4.46-19.133-4.598-26.488-.326-3.628 2.106-7.948 6.288-7.918 14.24l.023 2.875c.01.933.02 1.843.023 2.684 3.778-.231 7.176-1.635 9.5-3.972.342-.342.804-.53 1.28-.53zm32.423 6.419h.018z" fill="#4c241d"/><path d="M148.77 279.51c2.876 2.876 1.952 8.465 1.952 8.465s-5.588.924-8.465-1.952c-2.876-2.877-1.952-8.465-1.952-8.465s5.588-.924 8.465 1.952z" fill="#9dc1e4"/><path d="M148.69 289.92c-2.212 0-5.512-.424-7.71-2.621-3.492-3.493-2.501-9.772-2.457-10.037a1.802 1.802 0 0 1 1.487-1.487c.267-.046 6.544-1.036 10.037 2.457s2.501 9.772 2.457 10.037a1.802 1.802 0 0 1-1.487 1.487c-.1.018-1.024.164-2.327.164zm2.032-1.945h.018zm-8.75-8.751c-.047 1.699.207 4.167 1.562 5.521 1.353 1.353 3.828 1.616 5.521 1.563.046-1.699-.208-4.166-1.562-5.521-1.352-1.353-3.828-1.604-5.522-1.563z" fill="#4c241d"/><path d="M131.42 279.51c-2.876 2.876-1.952 8.465-1.952 8.465s5.588.924 8.465-1.952c2.876-2.877 1.952-8.465 1.952-8.465s-5.588-.924-8.465 1.952z" fill="#9dc1e4"/><path d="M131.5 289.92c-1.304 0-2.228-.146-2.326-.164a1.802 1.802 0 0 1-1.487-1.487c-.045-.265-1.036-6.544 2.457-10.037s9.772-2.503 10.036-2.457a1.802 1.802 0 0 1 1.487 1.487c.045.265 1.036 6.544-2.456 10.037-2.199 2.198-5.499 2.621-7.71 2.621zm-.365-3.612c1.704.05 4.167-.207 5.521-1.563 1.353-1.355 1.609-3.82 1.563-5.521-1.697-.055-4.165.206-5.521 1.562-1.353 1.356-1.609 3.822-1.563 5.522zM158.32 293.73a1.805 1.805 0 0 1-1.806-1.806v-10.961a1.805 1.805 0 1 1 3.612 0v10.96c0 1-.808 1.807-1.806 1.807z" fill="#4c241d"/><ellipse cx="140.09" cy="199.68" rx="21.675" ry="16.256" fill="#fff"/><path d="M140.09 217.74c-12.947 0-23.481-8.103-23.481-18.062s10.534-18.062 23.481-18.062c12.947 0 23.481 8.103 23.481 18.062s-10.534 18.062-23.481 18.062zm0-32.512c-10.956 0-19.868 6.482-19.868 14.45s8.913 14.45 19.868 14.45c10.956 0 19.868-6.482 19.868-14.45s-8.913-14.45-19.868-14.45zM122.2 293.73a1.805 1.805 0 0 1-1.806-1.806v-10.961a1.805 1.805 0 1 1 3.612 0v10.96c0 1-.808 1.807-1.806 1.807z" fill="#4c241d"/><path d="M163.34 215.94h-46.497l-5.651-18.062h57.799z" fill="#fff"/><path d="M163.34 217.74h-46.496c-.79 0-1.489-.513-1.723-1.267l-5.652-18.062a1.804 1.804 0 0 1 1.724-2.346h57.799a1.804 1.804 0 0 1 1.723 2.346l-5.651 18.062a1.804 1.804 0 0 1-1.724 1.267zm-45.168-3.612h43.84l4.523-14.45H113.65zM140.09 244.84a5.41 5.41 0 0 1-3.579-1.351 1.806 1.806 0 0 1 2.389-2.71 1.78 1.78 0 0 0 1.19.449c.518 0 .993-.212 1.341-.595a1.805 1.805 0 0 1 2.55-.127c.742.67.798 1.812.127 2.55a5.428 5.428 0 0 1-4.018 1.784z" fill="#4c241d"/></g><g transform="translate(-390.29 -109.393)" stroke-width=".452"><path d="M472.41 224.092h-65.024v-14.857c0-6.692 3.854-12.756 9.833-15.474l22.68-10.309 22.678 10.309c5.98 2.718 9.833 8.782 9.833 15.474z" fill="#fff"/><path d="M472.41 225.902h-65.024a1.805 1.805 0 0 1-1.806-1.806v-14.857c0-7.39 4.276-14.111 10.892-17.118l22.678-10.308a1.812 1.812 0 0 1 1.495 0l22.678 10.308c6.617 3.007 10.892 9.728 10.892 17.118v14.857c0 .998-.807 1.806-1.806 1.806zm-63.218-3.612h61.412v-13.051c0-5.978-3.445-11.407-8.775-13.831l-21.93-9.968-21.93 9.968c-5.331 2.423-8.776 7.853-8.776 13.83z" fill="#4c241d"/><path d="M445.53 186.21h-11.922l-12.045 5.475 18.006 18.006 18.936-17.583z" fill="#9dc1e4"/><path d="M439.56 211.5a1.8 1.8 0 0 1-1.277-.53l-18.006-18.005a1.807 1.807 0 0 1 .53-2.921l12.045-5.475c.235-.108.49-.163.748-.163h11.92c.257 0 .513.055.748.163l12.975 5.898a1.807 1.807 0 0 1 .481 2.966l-18.936 17.583a1.794 1.794 0 0 1-1.229.484zm-14.885-19.246l14.931 14.931 15.672-14.552-10.15-4.614h-11.137z" fill="#4c241d"/><path d="M439.56 193.44a7.225 7.225 0 0 1-7.225-7.225v-3.612h14.45v3.612a7.225 7.225 0 0 1-7.225 7.225z" fill="#e7d1c4"/><path d="M439.56 195.24c-4.98 0-9.031-4.052-9.031-9.031v-3.613c0-.998.808-1.806 1.806-1.806h14.45c.998 0 1.806.808 1.806 1.807v3.612c0 4.98-4.051 9.031-9.03 9.031zm-5.419-10.837v1.806a5.425 5.425 0 0 0 5.419 5.419 5.425 5.425 0 0 0 5.419-5.419v-1.806z" fill="#4c241d"/><path d="M463.05 156.41c-.133 0-.152-1.328-.13-2.845.037-2.629-1.722-4.967-4.274-5.597-12.482-3.08-25.885-2.505-38.051 1.232-1.595.49-2.641 2.02-2.594 3.687.047 1.692.06 3.523-.107 3.523a4.515 4.515 0 0 0-4.512 4.68c.051 1.444.94 2.75 2.138 3.558 1.452.98 2.7.911 3.807.539 1.791 8.741 8.138 16.052 16.9 18.872 2.512.808 5.23.731 7.74-.083l.801-.26c8.622-2.793 14.912-9.951 16.786-18.548 1.102.389 2.358.457 3.78-.43 1.151-.716 2.03-1.893 2.196-3.239a4.516 4.516 0 0 0-4.48-5.089z" fill="#e7d1c4"/><g fill="#4c241d"><path d="M439.91 186.44c-1.444 0-2.868-.219-4.237-.66-8.67-2.792-15.321-9.803-17.71-18.53-1.178.02-2.335-.349-3.454-1.102-1.767-1.193-2.864-3.058-2.931-4.992a6.28 6.28 0 0 1 1.767-4.62 6.278 6.278 0 0 1 2.88-1.71c0-.441-.006-1.051-.03-1.886-.07-2.498 1.523-4.745 3.87-5.466 12.672-3.893 26.528-4.34 39.013-1.258 3.378.833 5.7 3.867 5.648 7.377-.007.513-.009.919-.005 1.236a6.344 6.344 0 0 1 3.068 1.91 6.348 6.348 0 0 1 1.534 4.982c-.222 1.806-1.357 3.506-3.032 4.552-1.092.681-2.194 1.004-3.4.972-2.456 8.55-9.053 15.432-17.564 18.19l-.8.262a14.96 14.96 0 0 1-4.617.743zm-20.583-23.057c.312 0 .625.081.901.24.448.259.764.697.868 1.203 1.688 8.233 7.698 14.946 15.684 17.515 2.092.675 4.387.649 6.633-.08l.797-.26c7.851-2.544 13.82-9.141 15.579-17.217.111-.506.434-.942.887-1.194.45-.25.993-.302 1.48-.123.817.287 1.462.215 2.225-.26.758-.474 1.266-1.194 1.358-1.928a2.698 2.698 0 0 0-.658-2.146 2.708 2.708 0 0 0-2.03-.916c-.483 0-.965-.203-1.304-.547-.623-.63-.672-1.298-.633-4.13.027-1.791-1.193-3.396-2.9-3.818-11.86-2.925-25.032-2.498-37.088 1.205-.8.245-1.344 1.032-1.32 1.912.105 3.737-.01 4.22-.595 4.82-.34.35-.828.558-1.316.558-.743 0-1.434.294-1.949.827a2.696 2.696 0 0 0-.759 1.983c.028.77.544 1.586 1.345 2.125.873.593 1.522.561 2.219.323.188-.061.382-.093.576-.093zm45.434-7.44h.018z"/><circle cx="449.5" cy="163.63" r="1.806"/><circle cx="431.44" cy="163.63" r="1.806"/></g><path d="M463.05 142.86c0-19.868-45.156-23.481-45.056 3.314.009 2.603.066 5.429.04 7.38 4.935.17 9.546-1.464 12.593-4.524 5.256 10.207 19.905 14.392 32.423 4.613V142.86z" fill="#bf7e68"/><path d="M447.99 161c-1.637 0-3.272-.175-4.89-.531-5.4-1.185-10.005-4.293-12.932-8.663-3.274 2.437-7.62 3.715-12.2 3.555a1.806 1.806 0 0 1-1.744-1.832c.018-1.227.002-2.802-.016-4.448l-.023-2.898c-.035-9.68 5.265-14.794 9.718-17.378 8.389-4.872 21.33-4.733 30.104.319 5.706 3.284 8.848 8.163 8.848 13.737v10.783c0 .555-.256 1.081-.695 1.423-4.992 3.9-10.594 5.933-16.17 5.933zm-17.365-13.774a1.805 1.805 0 0 1 1.605.979c2.28 4.43 6.526 7.613 11.645 8.737 5.804 1.273 11.94-.216 17.367-4.195v-9.885c0-5.419-3.828-8.758-7.038-10.606-7.743-4.46-19.133-4.598-26.488-.326-3.628 2.106-7.948 6.288-7.918 14.24l.023 2.875c.01.933.02 1.843.023 2.684 3.778-.23 7.176-1.635 9.5-3.972.342-.342.804-.53 1.28-.53zm32.424 6.419h.018z" fill="#4c241d"/><path d="M448.24 211.85c2.876 2.876 1.952 8.465 1.952 8.465s-5.588.924-8.465-1.952c-2.876-2.877-1.952-8.465-1.952-8.465s5.588-.924 8.465 1.952z" fill="#9dc1e4"/><path d="M448.16 222.27c-2.212 0-5.512-.424-7.71-2.621-3.492-3.493-2.501-9.772-2.457-10.037a1.802 1.802 0 0 1 1.487-1.487c.267-.046 6.544-1.036 10.037 2.457 3.493 3.492 2.501 9.772 2.457 10.037a1.802 1.802 0 0 1-1.487 1.487c-.1.018-1.024.164-2.327.164zm2.032-1.945h.018zm-8.75-8.751c-.047 1.699.207 4.167 1.562 5.521 1.353 1.353 3.828 1.616 5.521 1.563.046-1.699-.208-4.166-1.562-5.521-1.352-1.353-3.828-1.604-5.522-1.563z" fill="#4c241d"/><path d="M430.89 211.85c-2.876 2.876-1.952 8.465-1.952 8.465s5.588.924 8.465-1.952c2.876-2.877 1.952-8.465 1.952-8.465s-5.588-.924-8.465 1.952z" fill="#9dc1e4"/><path d="M430.97 222.27c-1.304 0-2.228-.146-2.326-.164a1.802 1.802 0 0 1-1.487-1.487c-.045-.265-1.036-6.544 2.457-10.037 3.492-3.493 9.772-2.503 10.037-2.457a1.802 1.802 0 0 1 1.487 1.487c.044.265 1.035 6.544-2.457 10.037-2.199 2.198-5.498 2.621-7.71 2.621zm-.365-3.612c1.704.05 4.167-.207 5.521-1.563 1.353-1.355 1.609-3.82 1.563-5.521-1.697-.055-4.165.206-5.521 1.562-1.353 1.356-1.609 3.822-1.563 5.522zM457.79 226.07a1.805 1.805 0 0 1-1.806-1.806v-10.961a1.805 1.805 0 1 1 3.612 0v10.96c0 1-.808 1.807-1.806 1.807z" fill="#4c241d"/><ellipse cx="439.56" cy="132.02" rx="21.675" ry="16.256" fill="#fff"/><path d="M439.56 150.09c-12.947 0-23.481-8.103-23.481-18.062s10.534-18.062 23.481-18.062 23.481 8.103 23.481 18.062-10.534 18.062-23.481 18.062zm0-32.512c-10.956 0-19.868 6.482-19.868 14.45s8.913 14.45 19.868 14.45 19.868-6.482 19.868-14.45-8.913-14.45-19.868-14.45zM421.67 226.07a1.805 1.805 0 0 1-1.806-1.806v-10.961a1.805 1.805 0 1 1 3.612 0v10.96c0 1-.808 1.807-1.806 1.807z" fill="#4c241d"/><path d="M462.81 148.28h-46.497l-5.651-18.062h57.799z" fill="#fff"/><path d="M462.81 150.09h-46.496c-.79 0-1.489-.513-1.723-1.267l-5.652-18.062a1.804 1.804 0 0 1 1.724-2.346h57.799a1.804 1.804 0 0 1 1.723 2.346l-5.651 18.062a1.804 1.804 0 0 1-1.724 1.267zm-45.168-3.612h43.84l4.523-14.45H413.12z" fill="#4c241d"/></g></svg>